<?xml version="1.0" standalone="no"?>
<!DOCTYPE svg PUBLIC "-//W3C//DTD SVG 20010904//EN"
 "http://www.w3.org/TR/2001/REC-SVG-20010904/DTD/svg10.dtd">
<svg version="1.0" xmlns="http://www.w3.org/2000/svg"
 width="600.000000pt" height="600.000000pt" viewBox="0 0 600.000000 600.000000"
 preserveAspectRatio="xMidYMid meet">

<g transform="translate(0.000000,300.000000) scale(0.100000,-0.100000)"
fill="orange" stroke="black">
<path d="M1342 2881 c-7 -4 -24 -6 -38 -3 -13 2 -30 0 -37 -6 -7 -6 -39 -14
-72 -17 -32 -3 -66 -11 -74 -19 -9 -7 -29 -14 -46 -14 -41 -1 -201 -67 -197
-82 1 -6 -2 -9 -8 -5 -17 10 -194 -101 -185 -116 3 -5 0 -6 -7 -4 -32 12 -237
-192 -322 -320 -54 -81 -123 -212 -128 -243 -2 -9 -6 -19 -10 -22 -13 -10 -23
-74 -10 -66 5 3 13 0 16 -6 3 -7 4 -2 1 12 l-4 25 247 0 247 -1 -235 3 c-129
2 -238 7 -242 11 -4 4 103 6 237 4 233 -3 245 -4 255 -23 6 -11 9 -30 6 -42
-3 -12 -3 -16 0 -9 3 6 10 10 15 7 5 -4 6 2 2 11 -4 12 -3 15 5 10 8 -5 10 -1
5 10 -4 11 -2 15 4 11 6 -4 29 17 51 47 119 157 319 281 522 322 109 22 292
15 395 -15 78 -23 241 -98 232 -107 -3 -3 -32 -8 -64 -11 -32 -3 -95 -16 -141
-29 -45 -13 -85 -24 -88 -24 -3 0 -2 -4 1 -10 3 -5 0 -8 -7 -5 -19 7 -160 -74
-152 -87 4 -7 3 -8 -5 -4 -14 9 -123 -82 -115 -96 3 -5 13 -3 23 6 10 9 21 13
24 9 11 -10 57 19 58 36 0 10 4 8 9 -6 9 -23 11 -23 210 -23 127 0 200 -4 200
-10 0 -5 0 -13 0 -17 -1 -5 -13 -7 -28 -6 -19 1 -21 0 -7 -4 11 -3 22 -8 25
-12 3 -4 17 7 33 25 24 29 26 34 12 47 -21 22 -19 34 3 14 17 -15 47 -9 47 10
0 10 54 63 64 63 4 0 18 -11 31 -25 18 -19 26 -22 32 -13 6 9 8 7 6 -7 -2 -11
2 -20 7 -20 6 0 22 -9 37 -19 15 -10 32 -15 38 -11 5 3 10 0 10 -7 0 -10 48
-12 242 -10 157 2 245 -1 252 -8 14 -14 26 -13 26 4 0 12 -43 14 -252 15 -139
1 -254 4 -257 7 -3 2 108 3 247 2 163 -2 252 1 253 7 0 6 8 -6 16 -25 14 -31
16 -33 23 -15 9 26 1 55 -16 56 -27 3 -32 4 -39 11 -4 4 4 5 19 2 24 -4 25 -3
15 23 -40 106 -170 310 -190 298 -5 -4 -7 0 -4 7 8 22 -234 258 -257 251 -4
-2 -8 1 -8 6 0 15 -100 72 -112 65 -6 -4 -8 -3 -5 3 9 15 -116 75 -139 67 -16
-5 -16 -4 -4 5 8 6 13 11 10 11 -3 0 -30 9 -60 21 -30 11 -62 22 -70 24 -8 2
-40 11 -70 20 -59 17 -170 34 -260 41 -44 4 -51 2 -37 -7 10 -6 30 -8 45 -5
18 5 23 4 13 -3 -12 -8 -12 -10 0 -14 8 -2 5 -3 -6 -1 -107 15 -158 16 -166 3
-4 -7 -11 -10 -15 -6 -13 13 6 21 59 28 44 5 39 6 -38 7 -49 1 -96 -2 -103 -7z
m535 -57 c-3 -3 -12 -4 -19 -1 -8 3 -5 6 6 6 11 1 17 -2 13 -5z m-872 -44 c-3
-5 -12 -10 -18 -10 -7 0 -6 4 3 10 19 12 23 12 15 0z m62 4 c-3 -3 -12 -4 -19
-1 -8 3 -5 6 6 6 11 1 17 -2 13 -5z m931 1 c-3 -3 -20 -10 -38 -15 -19 -5 -29
-6 -24 -1 12 12 74 27 62 16z m-131 -11 c-3 -3 -12 -4 -19 -1 -8 3 -5 6 6 6
11 1 17 -2 13 -5z m-1007 -58 c0 -3 -4 -8 -10 -11 -5 -3 -10 -1 -10 4 0 6 5
11 10 11 6 0 10 -2 10 -4z m-19 -629 c-10 -9 -11 -8 -5 6 3 10 9 15 12 12 3
-3 0 -11 -7 -18z m-571 -1 c0 -3 -4 -8 -10 -11 -5 -3 -10 -1 -10 4 0 6 5 11
10 11 6 0 10 -2 10 -4z m11 -39 c-10 -9 -11 -8 -5 6 3 10 9 15 12 12 3 -3 0
-11 -7 -18z m491 -27 c10 -10 14 -22 9 -24 -4 -3 -13 6 -19 19 -14 30 -12 31
10 5z m1453 10 c-3 -5 -12 -10 -18 -10 -7 0 -6 4 3 10 19 12 23 12 15 0z
m-1476 -40 c0 -10 -3 -8 -9 5 -12 27 -12 43 0 25 5 -8 9 -22 9 -30z m721 15
c-7 -8 -17 -12 -22 -9 -5 3 -19 -2 -31 -13 -19 -16 -20 -16 -8 0 14 17 63 46
70 40 2 -1 -2 -9 -9 -18z m475 -21 c-7 -9 -11 -8 -13 5 -2 14 -25 16 -205 16
l-202 -1 198 3 c120 2 197 7 197 13 0 6 8 2 18 -7 12 -13 14 -21 7 -29z"/>
<path d="M2150 2025 c0 -12 52 -56 58 -50 3 3 3 6 1 8 -2 1 -16 13 -31 26 -16
14 -28 20 -28 16z"/>
<path d="M1486 1981 c-3 -5 3 -11 13 -14 14 -3 18 -1 14 9 -6 16 -19 18 -27 5z"/>
<path d="M2216 1962 c-3 -6 1 -15 8 -21 8 -7 17 -8 20 -3 3 6 -1 15 -8 21 -8
7 -17 8 -20 3z"/>
<path d="M2260 1956 c0 -2 7 -7 16 -10 8 -3 12 -2 9 4 -6 10 -25 14 -25 6z"/>
<path d="M1335 1914 c-9 -15 -12 -23 -6 -20 11 7 35 46 28 46 -3 0 -12 -12
-22 -26z"/>
<path d="M1865 1930 c-3 -5 -1 -10 4 -10 6 0 11 5 11 10 0 6 -2 10 -4 10 -3 0
-8 -4 -11 -10z"/>
<path d="M2306 1917 c3 -10 9 -15 12 -12 3 3 0 11 -7 18 -10 9 -11 8 -5 -6z"/>
<path d="M1865 1890 c-16 -16 -27 -31 -24 -33 2 -2 17 11 32 30 36 41 31 43
-8 3z"/>
<path d="M2330 1830 c0 -5 5 -10 11 -10 5 0 7 5 4 10 -3 6 -8 10 -11 10 -2 0
-4 -4 -4 -10z"/>
<path d="M1730 1739 c0 -5 5 -7 10 -4 6 3 10 8 10 11 0 2 -4 4 -10 4 -5 0 -10
-5 -10 -11z"/>
<path d="M2430 1716 c0 -2 8 -10 18 -17 15 -13 16 -12 3 4 -13 16 -21 21 -21
13z"/>
<path d="M1670 1670 c-9 -6 -10 -10 -3 -10 6 0 15 5 18 10 8 12 4 12 -15 0z"/>
<path d="M1626 1611 l-30 -36 34 32 c19 18 32 34 29 36 -2 2 -17 -12 -33 -32z"/>
<path d="M114 1585 c-10 -55 4 -234 26 -347 53 -258 171 -484 353 -675 387
-405 950 -537 1479 -347 196 71 384 196 533 356 232 250 361 562 368 890 l2
123 -30 -1 c-28 -1 -50 -3 -202 -20 -60 -6 -75 -15 -53 -29 30 -18 -2 -25
-119 -25 l-128 0 -6 -72 c-18 -200 -122 -410 -274 -548 -227 -207 -551 -278
-841 -184 -80 26 -203 85 -187 90 6 2 51 10 102 18 181 31 320 103 454 236
117 116 174 209 220 355 34 109 40 104 -117 99 -87 -3 -141 0 -149 6 -9 8 -15
8 -20 0 -9 -14 -85 -13 -85 2 0 15 -16 -3 -291 -318 -123 -140 -226 -254 -230
-254 -4 0 -76 75 -160 167 -85 91 -202 219 -261 282 -59 64 -108 119 -108 124
0 4 56 7 125 7 127 0 169 14 73 24 -279 30 -451 55 -458 66 -6 9 -11 1 -16
-25z"/>
<path d="M2530 1606 c0 -2 8 -10 18 -17 15 -13 16 -12 3 4 -13 16 -21 21 -21
13z"/>
<path d="M1560 1545 c-7 -9 -11 -18 -8 -20 3 -3 11 1 18 10 7 9 11 18 8 20 -3
3 -11 -1 -18 -10z"/>
<path d="M1390 1540 c8 -5 20 -10 25 -10 6 0 3 5 -5 10 -8 5 -19 10 -25 10 -5
0 -3 -5 5 -10z"/>
</g>
</svg>
