<svg width="123" height="35" viewBox="0 0 123 35" fill="none" xmlns="http://www.w3.org/2000/svg">
<path d="M13.6601 27.621C13.5148 28.4396 13.3542 29.2889 13.163 30.1611C13.1324 30.1457 0.399832 11.2254 0.361596 11.2025C-0.441362 10.0166 -0.36489 7.60662 5.50817 8.4023C14.769 9.52696 15.1054 20.0697 13.6601 27.621Z" fill="url(#paint0_linear)"/>
<path d="M24.5807 27.621C24.726 28.4396 24.8866 29.2889 25.0777 30.1611C25.116 30.1534 37.841 11.2331 37.8792 11.2025C38.6821 10.0166 38.6057 7.60662 32.7326 8.4023C23.4718 9.52696 23.1353 20.0697 24.5807 27.621Z" fill="url(#paint1_linear)"/>
<path d="M27.4241 2.82492C22.1934 -1.69668 12.0456 -0.778591 8.57373 5.49503C14.9668 7.46127 17.651 14.3546 17.5592 20.72C17.6051 24.1858 17.108 28.1948 16.068 32.7317C15.8692 33.6039 16.5345 34.4302 17.4292 34.4302H20.8169C21.7116 34.4302 22.377 33.6039 22.1781 32.7317C21.1381 28.1948 20.641 24.1935 20.6869 20.72C20.5952 14.3623 23.2793 7.46127 29.6724 5.49503C29.1294 4.52338 28.3724 3.62059 27.4241 2.82492Z" fill="url(#paint2_linear)"/>
<path d="M52.8827 12.855C53.5097 13.1381 53.9839 13.5359 54.328 14.0562C54.6645 14.5764 54.8327 15.1885 54.8327 15.9C54.8327 16.6039 54.6645 17.2159 54.328 17.7362C53.9915 18.2641 53.5097 18.6619 52.8827 18.9373C52.2556 19.2128 51.5215 19.3581 50.6726 19.3581H48.7532C48.7532 19.3581 48.7455 19.3581 48.7455 19.3658V20.3757C48.7455 21.2785 48.019 22.0053 47.1167 22.0053H46.5278V13.7348C46.5278 13.0157 47.109 12.4342 47.8279 12.4342H50.665C51.5215 12.4342 52.2556 12.5719 52.8827 12.855ZM52.0721 17.1241C52.4162 16.8334 52.5921 16.4279 52.5921 15.9C52.5921 15.3644 52.4162 14.9513 52.0721 14.6606C51.7279 14.3698 51.2232 14.2321 50.5579 14.2321H48.7608C48.7608 14.2321 48.7532 14.2321 48.7532 14.2398V17.5526C48.7532 17.5526 48.7532 17.5602 48.7608 17.5602H50.5503C51.2156 17.5602 51.7203 17.4148 52.0721 17.1241ZM63.9788 14.607L61.4017 20.7965C61.1034 21.5233 60.3846 22.0053 59.5969 22.0053H58.6334L62.4493 13.4365C62.717 12.832 63.3211 12.4342 63.9864 12.4342C64.6517 12.4342 65.2559 12.8244 65.5235 13.4288L69.3548 22.0053H68.3377C67.55 22.0053 66.8388 21.531 66.5329 20.7965L63.9788 14.607ZM80.1909 21.3014L78.8297 19.3352H78.7226H76.7955V20.7047C76.7955 21.4238 76.2143 22.0053 75.4955 22.0053H74.5778V13.4059C74.5778 12.8703 75.0137 12.4342 75.549 12.4342H78.715C79.5638 12.4342 80.2979 12.5719 80.925 12.855C81.5521 13.1381 82.0262 13.5359 82.3703 14.0562C82.7068 14.5764 82.875 15.1885 82.875 15.9C82.875 16.6115 82.7068 17.2236 82.3627 17.7362C82.0186 18.2488 81.5368 18.6466 80.9097 18.922L83.0586 21.9977H81.5368C80.9938 21.9977 80.4968 21.7375 80.1909 21.3014ZM80.1144 14.6682C79.7703 14.3775 79.2656 14.2398 78.6003 14.2398H76.7955V17.5755H78.6003C79.2656 17.5755 79.7703 17.4301 80.1144 17.1394C80.4585 16.8487 80.6344 16.4355 80.6344 15.9076C80.6344 15.3644 80.4585 14.9513 80.1144 14.6682ZM88.794 12.4342H89.3828C90.2776 12.4342 91.0117 13.161 91.0117 14.0638V20.1997H94.5065C95.2253 20.1997 95.8065 20.7812 95.8065 21.5004V22.0053H88.794V12.4342ZM108.531 21.5233V21.9977H101.121V13.7348C101.121 13.0157 101.702 12.4342 102.421 12.4342H108.348V12.9086C108.348 13.6277 107.767 14.2092 107.048 14.2092H103.316V16.2902H107.759V16.711C107.759 17.4301 107.178 18.0116 106.459 18.0116H103.316V20.2303H107.224C107.95 20.2227 108.531 20.8041 108.531 21.5233ZM120.14 21.3014L118.779 19.3352H118.672H116.745V20.3757C116.745 21.2785 116.018 22.0053 115.116 22.0053H114.527V13.7348C114.527 13.0157 115.108 12.4342 115.827 12.4342H118.664C119.513 12.4342 120.247 12.5719 120.874 12.855C121.501 13.1381 121.975 13.5359 122.319 14.0562C122.656 14.5764 122.824 15.1885 122.824 15.9C122.824 16.6115 122.656 17.2236 122.312 17.7362C121.968 18.2488 121.486 18.6466 120.859 18.922L123 21.9977H121.478C120.951 21.9977 120.446 21.7375 120.14 21.3014ZM120.071 14.6682C119.727 14.3775 119.222 14.2398 118.557 14.2398H116.752V17.5755H118.557C119.222 17.5755 119.727 17.4301 120.071 17.1394C120.415 16.8487 120.591 16.4355 120.591 15.9076C120.591 15.3644 120.415 14.9513 120.071 14.6682Z" fill="url(#paint3_linear)"/>
<defs>
<linearGradient id="paint0_linear" x1="13.2395" y1="13.1618" x2="4.70624" y2="21.6911" gradientUnits="userSpaceOnUse">
<stop stop-color="#A8A8A8"/>
<stop offset="1" stop-color="#F1F2F2"/>
</linearGradient>
<linearGradient id="paint1_linear" x1="25.0015" y1="13.1618" x2="33.5347" y2="21.6911" gradientUnits="userSpaceOnUse">
<stop stop-color="#A8A8A8"/>
<stop offset="1" stop-color="#F1F2F2"/>
</linearGradient>
<linearGradient id="paint2_linear" x1="19.1193" y1="34.4302" x2="19.1193" y2="0.00178532" gradientUnits="userSpaceOnUse">
<stop stop-color="#A8A8A8"/>
<stop offset="0.0134288" stop-color="#A9A9A9"/>
<stop offset="0.4453" stop-color="#D0D1D1"/>
<stop offset="0.7891" stop-color="#E8E9E9"/>
<stop offset="1" stop-color="#F1F2F2"/>
</linearGradient>
<linearGradient id="paint3_linear" x1="63.0878" y1="-3.36858" x2="105.746" y2="39.2695" gradientUnits="userSpaceOnUse">
<stop stop-color="#F1F2F2"/>
<stop offset="1" stop-color="#A8A8A8"/>
</linearGradient>
</defs>
</svg>
